        <svg viewBox="0 0 850.5 850.5" style="width:100%;height:100%;" xmlns="http://www.w3.org/2000/svg">
          <path fill-rule="evenodd" fill="none" fill-opacity="1" d="M 0 850.5 L 850.5 850.5 L 850.5 0 L 0 0 Z M 0 850.5 " id="path1" style="fill:none" />
          <path fill="none" stroke-width="100.01" stroke-linecap="butt" stroke-linejoin="miter" stroke="currentColor"
            stroke-opacity="1" stroke-miterlimit="10" d="M 603.050781 587.628906 L 607.128906 470.828125 C 605.539062 460.648438 601.460938 428.730469 597.609375 409.71875 C 593.75 390.710938 591.039062 374.410156 584.011719 356.761719 C 576.988281 339.101562 564.289062 318.730469 555.460938 303.789062 C 546.621094 288.859375 542.308594 278.898438 530.980469 267.128906 C 519.648438 255.359375 500.621094 241.550781 487.46875 233.179688 C 474.328125 224.800781 479.539062 226.390625 452.121094 216.878906 C 424.699219 207.371094 363.738281 186.101562 322.949219 176.140625 C 282.160156 166.179688 222.328125 158.710938 207.371094 157.128906 "
            transform="matrix(1, 0, 0, -1, 0, 850.5)" id="path2" />
          <path
            fill="none"
            stroke-width="100.01"
            stroke-linecap="butt"
            stroke-linejoin="miter"
            stroke="currentColor"
            stroke-opacity="1"
            stroke-miterlimit="10"
            d="M 268.460938 580.878906 C 263.648438 559.769531 258.839844 538.671875 257.820312 518.96875 C 256.808594 499.28125 259.851562 482.398438 262.378906 462.699219 C 264.921875 443 268.71875 420.261719 273.019531 400.800781 C 277.328125 381.339844 279.609375 365.160156 288.21875 345.929688 C 296.839844 326.699219 313.550781 301.621094 324.699219 285.441406 C 335.851562 269.261719 344.960938 258.941406 355.101562 248.859375 C 365.230469 238.78125 370.039062 234.320312 385.5 224.941406 C 400.949219 215.558594 404.75 206.890625 447.808594 192.589844 C 490.871094 178.28125 608.660156 149.910156 643.878906 139.128906 "
            transform="matrix(1, 0, 0, -1, 0, 850.5)"
            id="path3" />
          <path
            fill="none"
            stroke-width="100.01"
            stroke-linecap="butt"
            stroke-linejoin="miter"
            stroke="currentColor"
            stroke-opacity="1"
            stroke-miterlimit="10"
            d="M 267.371094 565.128906 C 270.539062 585.101562 273.710938 605.070312 279.589844 625.039062 C 285.46875 645.011719 293.160156 665.710938 302.660156 684.949219 C 312.171875 704.191406 327.550781 728.300781 336.601562 740.46875 C 345.648438 752.648438 351.300781 752.898438 356.960938 758.011719 C 362.609375 763.121094 364.871094 766.78125 370.53125 771.160156 C 376.179688 775.539062 383.648438 780.898438 390.890625 784.308594 C 398.128906 787.71875 406.5 789.910156 413.960938 791.621094 C 421.429688 793.320312 428.210938 795.03125 435.679688 794.539062 C 443.140625 794.050781 450.609375 790.890625 458.75 788.699219 C 466.898438 786.5 477.300781 784.558594 484.539062 781.390625 C 491.78125 778.21875 496.53125 773.839844 502.191406 769.699219 C 507.839844 765.558594 513.269531 761.179688 518.46875 756.550781 C 523.679688 751.921875 529.558594 746.808594 533.398438 741.941406 C 537.25 737.058594 537.929688 733.171875 541.550781 727.320312 C 545.171875 721.480469 551.050781 712.949219 555.121094 706.871094 C 559.191406 700.78125 562.808594 697.371094 565.980469 690.789062 C 569.148438 684.21875 574.121094 667.410156 574.121094 667.410156 C 576.839844 659.621094 579.550781 652.070312 582.269531 644.03125 C 584.980469 636 587.691406 627.960938 590.410156 619.191406 C 593.121094 610.421875 596.519531 599.710938 598.550781 591.429688 C 600.589844 583.148438 599.910156 579.980469 602.628906 569.511719 "
            transform="matrix(1, 0, 0, -1, 0, 850.5)"
            id="path4" />
          <path
            fill="none"
            stroke-width="80.012"
            stroke-linecap="butt"
            stroke-linejoin="miter"
            stroke="currentColor"
            stroke-opacity="1"
            stroke-miterlimit="10"
            d="M 183.371094 44.625 L 667.179688 44.625 "
            transform="matrix(1, 0, 0, -1, 0, 850.5)"
            id="path5" />
        </svg>
