        <svg viewBox="0 0 850.5 850.5" style="width:100%;height:100%;" version="1.1" xmlns="http://www.w3.org/2000/svg">
          <path fill-rule="evenodd" fill="none" d="M 0 850.5 L 850.5 850.5 L 850.5 0 L 0 0 Z" />
          <path fill="none" stroke="currentColor" stroke-width="100.01" stroke-linecap="butt" stroke-linejoin="miter"
            stroke-opacity="1" stroke-miterlimit="10" d="M 595.550781 545.628906 L 599.628906 428.828125 C 598.039062 418.648438 593.960938 386.730469 590.109375 367.71875 C 586.25 348.710938 583.539062 332.410156 576.511719 314.761719 C 569.488281 297.101562 556.789062 276.730469 547.960938 261.789062 C 539.121094 246.859375 534.808594 236.898438 523.480469 225.128906 C 512.148438 213.359375 493.121094 199.550781 479.96875 191.179688 C 466.828125 182.800781 472.039062 184.390625 444.621094 174.878906 C 417.199219 165.371094 356.238281 144.101562 315.449219 134.140625 C 274.660156 124.179688 214.828125 116.710938 199.871094 115.121094" 
            transform="matrix(1, 0, 0, -1, 0, 850.5)" />
          <path fill="none" stroke="currentColor" stroke-width="100.01" stroke-linecap="butt" stroke-linejoin="miter"
            stroke-opacity="1" stroke-miterlimit="10" d="M 260.960938 538.878906 C 256.148438 517.769531 251.339844 496.671875 250.328125 476.96875 C 249.308594 457.28125 252.351562 440.398438 254.878906 420.699219 C 257.421875 401 261.21875 378.261719 265.519531 358.800781 C 269.828125 339.339844 272.109375 323.160156 280.71875 303.929688 C 289.339844 284.699219 306.050781 259.621094 317.199219 243.441406 C 328.351562 227.261719 337.460938 216.941406 347.601562 206.859375 C 357.730469 196.78125 362.539062 192.320312 378 182.941406 C 393.449219 173.558594 397.25 164.890625 440.308594 150.589844 C 483.371094 136.28125 601.160156 107.910156 636.378906 139.128906" 
            transform="matrix(1, 0, 0, -1, 0, 850.5)" />
          <path fill="none" stroke="currentColor" stroke-width="100.01" stroke-linecap="butt" stroke-linejoin="miter"
            stroke-opacity="1" stroke-miterlimit="10" d="M 259.871094 522.378906 C 263.039062 542.410156 266.210938 562.449219 272.089844 582.480469 C 277.96875 602.519531 285.660156 623.289062 295.160156 642.589844 C 304.671875 661.890625 320.050781 686.078125 329.101562 698.300781 C 338.148438 710.511719 343.800781 710.761719 349.460938 715.890625 C 355.109375 721.019531 357.371094 724.691406 363.03125 729.078125 C 368.679688 733.480469 376.148438 738.859375 383.390625 742.28125 C 390.628906 745.699219 399 747.898438 406.460938 749.609375 C 413.929688 751.320312 420.710938 753.03125 428.179688 752.539062 C 435.640625 752.050781 443.109375 748.878906 451.25 746.679688 C 459.398438 744.480469 469.800781 742.519531 477.039062 739.351562 C 484.28125 736.171875 489.03125 731.769531 494.691406 727.621094 C 500.339844 723.460938 505.769531 719.070312 510.96875 714.421875 C 516.179688 709.78125 522.058594 704.648438 525.898438 699.761719 C 529.75 694.878906 530.429688 690.96875 534.050781 685.101562 C 537.671875 679.238281 543.550781 670.691406 547.621094 664.578125 C 551.691406 658.46875 555.308594 655.050781 558.480469 648.449219 C 561.648438 641.859375 566.621094 625 566.621094 625 C 569.339844 617.179688 572.050781 609.601562 574.769531 601.539062 C 577.480469 593.480469 580.191406 585.410156 582.910156 576.621094 C 585.621094 567.820312 589.019531 557.070312 591.050781 548.761719 C 593.089844 540.460938 592.410156 537.28125 595.128906 526.769531" 
            transform="matrix(1, 0, 0, -1, 0, 850.5)" />
        </svg>
